<svg width="250" height="250" viewBox="0 0 250 250" fill="none" xmlns="http://www.w3.org/2000/svg">
<path d="M109.512 151.407C118.437 142.481 132.895 142.477 141.796 151.378L201.744 211.33C203.456 213.042 203.893 215.573 203.018 217.704C195.387 224.117 187.186 229.465 178.567 233.711L151.693 206.835C147.984 203.126 141.705 205.754 141.704 210.929L141.694 244.68C141.694 244.685 141.694 244.833 141.675 244.89C131.021 246.338 120.216 246.379 109.544 244.955C109.525 244.86 109.524 244.784 109.524 244.708L109.534 210.956C109.535 205.744 103.239 203.139 99.5474 206.831L72.5628 233.817C64.0982 229.691 56.0336 224.48 48.5017 218.242C47.3228 216.035 47.6467 213.238 49.5116 211.373L49.5308 211.392L109.512 151.407Z" fill="#1F4143"/>
<path d="M211.397 49.5144C213.262 47.6497 216.039 47.3066 218.265 48.5044C224.502 56.0368 229.694 64.083 233.839 72.5672L206.836 99.5727C203.145 103.265 205.787 109.561 210.962 109.56L244.691 109.57C244.691 109.57 244.844 109.569 244.939 109.588C246.382 120.242 246.34 131.048 244.892 141.703C244.835 141.722 244.758 141.722 244.682 141.722L210.933 141.732C205.721 141.734 203.113 148.032 206.821 151.741L233.676 178.597C229.431 187.217 224.14 195.4 217.708 203.012C215.558 203.906 213.046 203.488 211.316 201.757L151.369 141.805C142.468 132.904 142.471 118.444 151.377 109.538L211.397 49.5144Z" fill="#1F4143"/>
<path d="M33.2922 47.9666C35.461 47.091 37.9527 47.4896 39.6834 49.2201L99.6313 109.172C108.532 118.074 108.528 132.533 99.603 141.459L39.6027 201.463C37.738 203.328 34.9608 203.672 32.7544 202.493C26.4975 194.98 21.3057 186.895 17.1608 178.41L44.1636 151.406C47.8554 147.714 45.2129 141.417 40.0383 141.419L6.30848 141.447C6.30848 141.447 6.1559 141.447 6.06078 141.428C4.63694 130.755 4.6403 119.948 6.10816 109.274C6.16521 109.255 6.24163 109.255 6.31762 109.255L40.0666 109.246C45.279 109.245 47.8678 102.966 44.1786 99.2759L17.2855 72.381C21.5303 63.7612 26.8597 55.5785 33.273 47.9475L33.2922 47.9666Z" fill="#1F4143"/>
<path d="M109.306 6.10797C119.96 4.65904 130.766 4.61848 141.419 6.06142C141.457 6.13751 141.457 6.25138 141.457 6.32742L141.448 40.0404C141.447 45.2533 147.742 47.8586 151.434 44.1668L178.437 17.1614C186.902 21.2876 195.005 26.4987 202.518 32.756C203.678 34.9436 203.353 37.7407 201.488 39.6057L141.488 99.6101C132.582 108.516 118.124 108.521 109.223 99.6192L49.2747 39.6672C47.5631 37.9554 47.1455 35.4439 48.0021 33.2938H47.9639C55.5754 26.861 63.7766 21.5503 72.3958 17.3052L99.2888 44.2001C102.979 47.89 109.276 45.2436 109.278 40.0687L109.287 6.31745C109.287 6.31745 109.287 6.16505 109.306 6.10797Z" fill="#1F4143"/>
</svg>
