<svg width="964" height="218" viewBox="0 0 964 218" fill="none" xmlns="http://www.w3.org/2000/svg">
<path d="M323.18 93.5753C319.066 89.9262 314.075 88.1017 308.232 88.1017C300.124 88.1017 293.77 91.1183 289.193 97.1758C284.616 103.233 282.303 111.699 282.303 122.598C282.303 133.497 284.591 141.962 289.193 148.02C293.794 154.077 300.124 157.094 308.232 157.094C314.343 157.094 319.504 155.197 323.692 151.426C327.879 147.631 330.509 142.23 331.58 135.175L357.899 136.562C356.973 144.93 354.247 152.204 349.718 158.383C345.19 164.563 339.322 169.355 332.067 172.737C324.812 176.118 316.875 177.821 308.232 177.821C297.738 177.821 288.56 175.559 280.696 171.034C272.856 166.509 266.745 160.062 262.339 151.693C257.956 143.325 255.765 133.618 255.765 122.598C255.765 111.578 257.956 101.871 262.339 93.5023C266.721 85.1337 272.832 78.687 280.696 74.1621C288.535 69.6372 297.714 67.3748 308.232 67.3748C316.607 67.3748 324.398 69.0047 331.556 72.2646C338.738 75.5244 344.581 80.1709 349.109 86.2041C353.638 92.2616 356.292 99.2679 357.095 107.223L330.777 108.61C329.851 102.236 327.319 97.2244 323.205 93.551L323.18 93.5753Z" fill="#1F4143"/>
<path d="M396.804 33.9004V55.2355H370.072V33.9004H396.804ZM396.001 69.7589V175.388H370.461V69.7589H396.001Z" fill="#1F4143"/>
<path d="M439.751 69.7588L440.749 99.6571L438.753 98.6597C440.214 88.8314 443.111 81.5576 447.42 76.838C451.729 72.1185 457.816 69.7588 465.68 69.7588H475.662V89.4883H465.485C460.032 89.4883 455.503 90.4614 451.924 92.3832C448.345 94.3051 445.667 97.2 443.939 101.044C442.21 104.887 441.358 109.607 441.358 115.202V175.388H415.818V69.7588H439.751Z" fill="#1F4143"/>
<path d="M543.662 93.5753C539.547 89.9262 534.556 88.1017 528.713 88.1017C520.606 88.1017 514.251 91.1183 509.674 97.1758C505.097 103.233 502.784 111.699 502.784 122.598C502.784 133.497 505.073 141.962 509.674 148.02C514.276 154.077 520.606 157.094 528.713 157.094C534.824 157.094 539.986 155.197 544.173 151.426C548.361 147.631 550.99 142.23 552.061 135.175L578.38 136.562C577.455 144.93 574.728 152.204 570.2 158.383C565.671 164.563 559.804 169.355 552.548 172.737C545.293 176.118 537.356 177.821 528.713 177.821C518.22 177.821 509.041 175.559 501.177 171.034C493.338 166.509 487.227 160.062 482.82 151.693C478.438 143.325 476.247 133.618 476.247 122.598C476.247 111.578 478.438 101.871 482.82 93.5023C487.202 85.1337 493.313 78.687 501.177 74.1621C509.017 69.6372 518.196 67.3748 528.713 67.3748C537.088 67.3748 544.879 69.0047 552.037 72.2646C559.219 75.5244 565.062 80.1709 569.591 86.2041C574.119 92.2616 576.773 99.2679 577.577 107.223L551.258 108.61C550.333 102.236 547.801 97.2244 543.686 93.551L543.662 93.5753Z" fill="#1F4143"/>
<path d="M612.27 33.9004V147.898C612.27 150.282 612.927 152.18 614.266 153.567C615.605 154.953 617.529 155.659 620.061 155.659H628.047V175.388H613.487C605.502 175.388 599.05 173.029 594.132 168.309C589.214 163.59 586.755 157.118 586.755 148.871V33.9004H612.294H612.27Z" fill="#1F4143"/>
<path d="M653.245 76.4489C661.426 70.4157 672.016 67.3748 685.066 67.3748C700.234 67.3748 711.75 71.2185 719.662 78.9302C727.575 86.642 731.519 97.9299 731.519 112.818V149.09C731.519 152.01 732.079 154.077 733.223 155.269C734.343 156.462 735.974 157.07 738.117 157.07H742.11V175.413L736.315 175.607H734.124C728.013 175.875 722.56 174.95 717.763 172.81C712.967 170.693 710.192 166.168 709.388 159.259C706.734 164.83 702.401 169.331 696.436 172.712C690.471 176.094 682.997 177.797 674.086 177.797C663.057 177.797 653.951 175.072 646.769 169.623C639.587 164.173 636.008 156.802 636.008 147.509C636.008 140.989 637.566 135.71 640.707 131.672C643.823 127.609 648.205 124.398 653.878 122.014C659.526 119.63 667.001 117.489 676.326 115.64L705.833 109.85C705.712 101.603 703.934 95.5458 700.55 91.6048C697.166 87.6881 692.005 85.7176 685.09 85.7176C679.369 85.7176 674.719 87.2016 671.14 90.1938C667.561 93.1861 665.151 97.5893 663.958 103.452L637.834 101.847C639.952 90.948 645.113 82.482 653.294 76.4245L653.245 76.4489ZM667.317 156.267C670.507 158.651 675.084 159.916 681.073 160.062C685.991 159.94 690.349 158.675 694.147 156.267C697.945 153.883 700.94 150.331 703.131 145.612C705.322 140.892 706.345 135.151 706.223 128.363L706.418 127.171L686.283 130.748C685.358 130.748 684.36 130.893 683.289 131.137C678.492 132.061 674.67 133.034 671.821 134.032C668.949 135.029 666.709 136.562 665.029 138.605C663.373 140.673 662.545 143.422 662.545 146.877C662.545 150.72 664.152 153.858 667.342 156.243L667.317 156.267Z" fill="#1F4143"/>
<path d="M781.405 69.7588L782.403 99.6571L780.407 98.6597C781.868 88.8314 784.765 81.5576 789.074 76.838C793.384 72.1185 799.47 69.7588 807.334 69.7588H817.316V89.4883H807.139C801.686 89.4883 797.157 90.4614 793.578 92.3832C789.999 94.3051 787.321 97.2 785.593 101.044C783.864 104.887 783.012 109.607 783.012 115.202V175.388H757.473V69.7588H781.405Z" fill="#1F4143"/>
<path d="M854.883 33.9004V55.2355H828.15V33.9004H854.883ZM854.079 69.7589V175.388H828.54V69.7589H854.079Z" fill="#1F4143"/>
<path d="M928.652 91.1912C924.538 88.0773 919.888 86.4961 914.702 86.4961C909.516 86.4961 905.256 87.7368 901.944 90.1938C898.609 92.6509 897.026 96.0081 897.148 100.265C897.27 104.255 899.266 107.32 903.137 109.437C906.984 111.578 912.121 113.28 918.5 114.618C928.872 116.224 937.247 118.268 943.626 120.798C950.004 123.328 954.898 126.709 958.282 130.966C961.666 135.224 963.37 140.6 963.37 147.12C963.37 153.64 961.374 159.575 957.381 164.149C953.388 168.723 948.008 172.153 941.215 174.415C934.423 176.678 926.778 177.797 918.281 177.797C908.713 177.797 900.24 176.361 892.863 173.515C885.486 170.669 879.667 166.533 875.407 161.157C871.146 155.78 868.687 149.358 868.03 141.914L893.959 140.722C894.762 144.298 896.174 147.46 898.244 150.185C900.313 152.91 902.991 154.978 906.327 156.364C909.638 157.751 913.436 158.456 917.697 158.456C922.736 158.456 927.192 157.459 931.063 155.464C934.909 153.469 936.857 150.477 936.857 146.487C936.857 143.69 936.029 141.476 934.374 139.822C932.718 138.167 930.649 136.829 928.19 135.832C925.731 134.835 922.444 133.934 918.305 133.132C917.234 132.864 915.919 132.523 914.312 132.134C904.476 130.285 896.491 128.144 890.38 125.76C884.269 123.376 879.473 120.141 876.015 116.102C872.558 112.04 870.757 106.907 870.635 100.655C870.635 93.7456 872.461 87.7611 876.113 82.7253C879.765 77.6896 885.024 73.8458 891.865 71.2671C898.706 68.6641 906.789 67.3748 916.09 67.3748C928.458 67.3748 938.756 70.5373 947.01 76.8381C955.263 83.1389 960.303 91.6778 962.178 102.455L936.249 103.647C935.323 98.4651 932.791 94.3051 928.677 91.1912H928.652Z" fill="#1F4143"/>
<path d="M94.5547 132.416C102.622 124.348 115.701 124.353 123.758 132.41L178.021 186.674C179.571 188.223 179.966 190.512 179.176 192.438C172.277 198.235 164.862 203.069 157.068 206.903L132.743 182.577C129.386 179.22 123.708 181.593 123.71 186.273L123.722 216.802C123.722 216.802 123.722 216.939 123.705 216.991C114.069 218.295 104.293 218.326 94.6387 217.031C94.6215 216.945 94.6221 216.876 94.6221 216.808L94.6094 186.279C94.6074 181.564 88.9114 179.205 85.5742 182.542L61.1816 206.934C53.5223 203.196 46.2231 198.478 39.4062 192.831C38.3388 190.834 38.6308 188.305 40.3164 186.619L40.333 186.637L94.5547 132.416ZM186.654 40.3164C188.34 38.6307 190.852 38.3214 192.866 39.4062C198.513 46.2231 203.214 53.505 206.969 61.1816L182.56 85.5908C179.222 88.928 181.616 94.625 186.297 94.627L216.809 94.6562C216.817 94.6563 216.949 94.6571 217.032 94.6738C218.344 104.311 218.313 114.085 217.009 123.722C216.957 123.739 216.888 123.739 216.819 123.739L186.291 123.727C181.576 123.725 179.221 129.42 182.578 132.777L206.886 157.086C203.051 164.88 198.27 172.278 192.456 179.159C190.512 179.967 188.24 179.587 186.674 178.021L132.41 123.758C124.353 115.701 124.349 102.622 132.399 94.5713L186.654 40.3164ZM25.5449 38.8076C27.5063 38.0169 29.7606 38.3788 31.3271 39.9453L85.5908 94.209C93.6475 102.266 93.6526 115.344 85.585 123.412L31.3467 177.65C29.6609 179.336 27.1489 179.645 25.1523 178.577C19.488 171.777 14.7868 164.462 11.0322 156.785L35.4424 132.375C38.779 129.038 36.3847 123.342 31.7041 123.34L1.19336 123.345C1.19336 123.345 1.0558 123.344 0.969727 123.327C-0.324713 113.673 -0.329095 103.898 0.992188 94.2441C1.0438 94.227 1.11281 94.2275 1.18164 94.2275L31.71 94.2393C36.425 94.2411 38.7632 88.5635 35.4238 85.2236L11.0811 60.8809C14.9156 53.0868 19.7307 45.6885 25.5273 38.79L25.5449 38.8076ZM94.2793 0.992188C103.916 -0.31184 113.69 -0.341881 123.327 0.969727C123.361 1.03845 123.362 1.14118 123.362 1.20996L123.374 31.7041C123.376 36.4193 129.073 38.7796 132.41 35.4424L156.819 11.0322C164.479 14.7695 171.812 19.488 178.611 25.1523C179.662 27.1317 179.37 29.6609 177.685 31.3467L123.446 85.585C115.396 93.6354 102.318 93.6301 94.2607 85.5732L39.9971 31.3105C38.4477 29.7612 38.0682 27.4892 38.8418 25.5449H38.8076C45.6888 19.7311 53.1035 14.9321 60.8975 11.0977L85.2402 35.4404C88.5801 38.7802 94.2753 36.3908 94.2734 31.71L94.2617 1.18164C94.2617 1.17801 94.2623 1.04311 94.2793 0.992188Z" fill="#1F4143"/>
</svg>
